<svg width="94" height="30" viewBox="0 0 94 30" fill="none" xmlns="http://www.w3.org/2000/svg">
    <rect width="94" height="30" rx="15" fill="url(#paint0_linear_1_215)"/>
    <path d="M13.932 20C13.68 20 13.484 19.9347 13.344 19.804C13.2133 19.664 13.148 19.468 13.148 19.216V10.914C13.148 10.662 13.2133 10.4707 13.344 10.34C13.484 10.2 13.68 10.13 13.932 10.13H19.042C19.238 10.13 19.3873 10.1813 19.49 10.284C19.5927 10.3773 19.644 10.5173 19.644 10.704C19.644 10.9 19.5927 11.0493 19.49 11.152C19.3873 11.2547 19.238 11.306 19.042 11.306H14.548V14.4H18.734C18.9393 14.4 19.0887 14.4513 19.182 14.554C19.2847 14.6567 19.336 14.8013 19.336 14.988C19.336 15.184 19.2847 15.3333 19.182 15.436C19.0887 15.5293 18.9393 15.576 18.734 15.576H14.548V18.824H19.042C19.238 18.824 19.3873 18.8753 19.49 18.978C19.5927 19.0807 19.644 19.2253 19.644 19.412C19.644 19.608 19.5927 19.7573 19.49 19.86C19.3873 19.9533 19.238 20 19.042 20H13.932ZM21.4761 20.084C21.3081 20.084 21.1681 20.0373 21.0561 19.944C20.9535 19.8413 20.8975 19.7153 20.8881 19.566C20.8881 19.4167 20.9535 19.2533 21.0841 19.076L23.4501 16.122V16.822L21.2381 14.064C21.0888 13.896 21.0188 13.7373 21.0281 13.588C21.0375 13.4293 21.0981 13.3033 21.2101 13.21C21.3221 13.1167 21.4575 13.07 21.6161 13.07C21.7935 13.07 21.9381 13.1027 22.0501 13.168C22.1715 13.224 22.2835 13.322 22.3861 13.462L24.2481 15.828H23.7441L25.6201 13.462C25.7228 13.322 25.8301 13.224 25.9421 13.168C26.0635 13.1027 26.2081 13.07 26.3761 13.07C26.5441 13.07 26.6795 13.1213 26.7821 13.224C26.8941 13.3173 26.9501 13.4433 26.9501 13.602C26.9595 13.7513 26.8941 13.91 26.7541 14.078L24.5421 16.794V16.164L26.9081 19.076C27.0481 19.244 27.1135 19.4073 27.1041 19.566C27.1041 19.7153 27.0481 19.8413 26.9361 19.944C26.8241 20.0373 26.6841 20.084 26.5161 20.084C26.3481 20.084 26.2035 20.0513 26.0821 19.986C25.9701 19.9207 25.8581 19.8227 25.7461 19.692L23.7441 17.172H24.2201L22.2321 19.692C22.1295 19.8133 22.0175 19.9113 21.8961 19.986C21.7841 20.0513 21.6441 20.084 21.4761 20.084ZM31.7586 20.126C31.0119 20.126 30.3679 19.986 29.8266 19.706C29.2946 19.4167 28.8793 19.0107 28.5806 18.488C28.2913 17.956 28.1466 17.326 28.1466 16.598C28.1466 15.8887 28.2913 15.268 28.5806 14.736C28.8699 14.204 29.2666 13.7887 29.7706 13.49C30.2746 13.1913 30.8486 13.042 31.4926 13.042C31.9686 13.042 32.3933 13.1213 32.7666 13.28C33.1399 13.4293 33.4573 13.6533 33.7186 13.952C33.9893 14.2413 34.1899 14.596 34.3206 15.016C34.4606 15.436 34.5306 15.9073 34.5306 16.43C34.5306 16.5887 34.4839 16.71 34.3906 16.794C34.2973 16.8687 34.1573 16.906 33.9706 16.906H29.2666V16.038H33.5786L33.3406 16.234C33.3406 15.7673 33.2706 15.3707 33.1306 15.044C32.9999 14.7173 32.7993 14.47 32.5286 14.302C32.2673 14.1247 31.9406 14.036 31.5486 14.036C31.1099 14.036 30.7366 14.1387 30.4286 14.344C30.1299 14.5493 29.9013 14.834 29.7426 15.198C29.5839 15.562 29.5046 15.9867 29.5046 16.472V16.556C29.5046 17.3773 29.6959 17.998 30.0786 18.418C30.4706 18.8287 31.0353 19.034 31.7726 19.034C32.0526 19.034 32.3466 18.9967 32.6546 18.922C32.9719 18.8473 33.2706 18.7213 33.5506 18.544C33.7093 18.4507 33.8493 18.4087 33.9706 18.418C34.1013 18.4273 34.2039 18.4693 34.2786 18.544C34.3626 18.6187 34.4139 18.712 34.4326 18.824C34.4513 18.936 34.4326 19.0527 34.3766 19.174C34.3206 19.286 34.2226 19.3887 34.0826 19.482C33.7653 19.6967 33.3966 19.86 32.9766 19.972C32.5566 20.0747 32.1506 20.126 31.7586 20.126ZM36.7861 20.098C36.5528 20.098 36.3755 20.0373 36.2541 19.916C36.1328 19.7853 36.0721 19.608 36.0721 19.384V13.784C36.0721 13.5507 36.1328 13.3733 36.2541 13.252C36.3755 13.1307 36.5435 13.07 36.7581 13.07C36.9821 13.07 37.1501 13.1307 37.2621 13.252C37.3835 13.3733 37.4441 13.5507 37.4441 13.784V14.806H37.3041C37.4535 14.246 37.7288 13.8213 38.1301 13.532C38.5315 13.2427 39.0448 13.0747 39.6701 13.028C39.8381 13.0187 39.9688 13.0607 40.0621 13.154C40.1648 13.2473 40.2208 13.392 40.2301 13.588C40.2488 13.784 40.2068 13.9427 40.1041 14.064C40.0015 14.176 39.8428 14.2413 39.6281 14.26L39.3621 14.288C38.7555 14.344 38.2935 14.5353 37.9761 14.862C37.6588 15.1887 37.5001 15.6367 37.5001 16.206V19.384C37.5001 19.608 37.4395 19.7853 37.3181 19.916C37.2061 20.0373 37.0288 20.098 36.7861 20.098ZM44.2091 20.126C43.5091 20.126 42.9024 19.9813 42.3891 19.692C41.8851 19.3933 41.4931 18.978 41.2131 18.446C40.9331 17.9047 40.7931 17.27 40.7931 16.542C40.7931 16.0007 40.8724 15.5153 41.0311 15.086C41.1897 14.6473 41.4137 14.2787 41.7031 13.98C42.0017 13.6813 42.3611 13.4527 42.7811 13.294C43.2104 13.126 43.6864 13.042 44.2091 13.042C44.5357 13.042 44.8764 13.0933 45.2311 13.196C45.5951 13.2893 45.9311 13.448 46.2391 13.672C46.3604 13.7467 46.4351 13.84 46.4631 13.952C46.5004 14.0547 46.5051 14.162 46.4771 14.274C46.4584 14.386 46.4071 14.484 46.3231 14.568C46.2484 14.6427 46.1551 14.6893 46.0431 14.708C45.9311 14.7173 45.8097 14.6847 45.6791 14.61C45.4551 14.4513 45.2264 14.3393 44.9931 14.274C44.7597 14.1993 44.5357 14.162 44.3211 14.162C43.9851 14.162 43.6864 14.218 43.4251 14.33C43.1731 14.4327 42.9584 14.5867 42.7811 14.792C42.6037 14.988 42.4684 15.2353 42.3751 15.534C42.2911 15.8327 42.2491 16.1733 42.2491 16.556C42.2491 17.3213 42.4264 17.9233 42.7811 18.362C43.1451 18.7913 43.6584 19.006 44.3211 19.006C44.5357 19.006 44.7597 18.9733 44.9931 18.908C45.2264 18.8427 45.4551 18.7307 45.6791 18.572C45.8097 18.4973 45.9311 18.4693 46.0431 18.488C46.1551 18.5067 46.2437 18.558 46.3091 18.642C46.3837 18.7167 46.4304 18.81 46.4491 18.922C46.4771 19.0247 46.4724 19.132 46.4351 19.244C46.3977 19.356 46.3184 19.4493 46.1971 19.524C45.8984 19.7387 45.5717 19.8927 45.2171 19.986C44.8717 20.0793 44.5357 20.126 44.2091 20.126ZM48.4342 20.084C48.2102 20.084 48.0376 20.0187 47.9162 19.888C47.7949 19.748 47.7342 19.5567 47.7342 19.314V13.854C47.7342 13.6113 47.7949 13.4247 47.9162 13.294C48.0376 13.1633 48.2102 13.098 48.4342 13.098C48.6582 13.098 48.8309 13.1633 48.9522 13.294C49.0829 13.4247 49.1482 13.6113 49.1482 13.854V19.314C49.1482 19.5567 49.0876 19.748 48.9662 19.888C48.8449 20.0187 48.6676 20.084 48.4342 20.084ZM48.4342 11.642C48.1542 11.642 47.9349 11.572 47.7762 11.432C47.6269 11.292 47.5522 11.096 47.5522 10.844C47.5522 10.5827 47.6269 10.3867 47.7762 10.256C47.9349 10.116 48.1542 10.046 48.4342 10.046C48.7142 10.046 48.9289 10.116 49.0782 10.256C49.2369 10.3867 49.3162 10.5827 49.3162 10.844C49.3162 11.096 49.2369 11.292 49.0782 11.432C48.9289 11.572 48.7142 11.642 48.4342 11.642ZM53.5325 20.126C53.1219 20.126 52.6972 20.0793 52.2585 19.986C51.8292 19.8927 51.4325 19.734 51.0685 19.51C50.9472 19.426 50.8632 19.3327 50.8165 19.23C50.7699 19.1273 50.7512 19.0247 50.7605 18.922C50.7792 18.81 50.8212 18.7167 50.8865 18.642C50.9612 18.558 51.0499 18.5067 51.1525 18.488C51.2645 18.4693 51.3812 18.4927 51.5025 18.558C51.8665 18.7633 52.2165 18.908 52.5525 18.992C52.8885 19.0667 53.2199 19.104 53.5465 19.104C54.0412 19.104 54.4145 19.0153 54.6665 18.838C54.9185 18.6607 55.0445 18.4227 55.0445 18.124C55.0445 17.8813 54.9605 17.6947 54.7925 17.564C54.6245 17.424 54.3725 17.3167 54.0365 17.242L52.7065 16.976C52.1279 16.8547 51.6892 16.64 51.3905 16.332C51.0919 16.024 50.9425 15.632 50.9425 15.156C50.9425 14.7267 51.0592 14.3533 51.2925 14.036C51.5259 13.7187 51.8525 13.476 52.2725 13.308C52.6925 13.1307 53.1779 13.042 53.7285 13.042C54.1392 13.042 54.5265 13.0933 54.8905 13.196C55.2545 13.2987 55.5905 13.4527 55.8985 13.658C56.0199 13.7233 56.0992 13.812 56.1365 13.924C56.1739 14.0267 56.1785 14.1293 56.1505 14.232C56.1319 14.3347 56.0852 14.428 56.0105 14.512C55.9359 14.5867 55.8425 14.6333 55.7305 14.652C55.6279 14.6613 55.5112 14.6333 55.3805 14.568C55.1005 14.3907 54.8205 14.2647 54.5405 14.19C54.2699 14.1153 53.9992 14.078 53.7285 14.078C53.2339 14.078 52.8605 14.1713 52.6085 14.358C52.3659 14.5353 52.2445 14.778 52.2445 15.086C52.2445 15.3193 52.3192 15.5107 52.4685 15.66C52.6179 15.8093 52.8512 15.9167 53.1685 15.982L54.4985 16.248C55.1052 16.3693 55.5625 16.5747 55.8705 16.864C56.1879 17.1533 56.3465 17.5453 56.3465 18.04C56.3465 18.684 56.0899 19.1927 55.5765 19.566C55.0632 19.9393 54.3819 20.126 53.5325 20.126ZM61.1258 20.126C60.3791 20.126 59.7351 19.986 59.1938 19.706C58.6618 19.4167 58.2464 19.0107 57.9478 18.488C57.6584 17.956 57.5138 17.326 57.5138 16.598C57.5138 15.8887 57.6584 15.268 57.9478 14.736C58.2371 14.204 58.6338 13.7887 59.1378 13.49C59.6418 13.1913 60.2158 13.042 60.8598 13.042C61.3358 13.042 61.7604 13.1213 62.1338 13.28C62.5071 13.4293 62.8244 13.6533 63.0858 13.952C63.3564 14.2413 63.5571 14.596 63.6878 15.016C63.8278 15.436 63.8978 15.9073 63.8978 16.43C63.8978 16.5887 63.8511 16.71 63.7578 16.794C63.6644 16.8687 63.5244 16.906 63.3378 16.906H58.6338V16.038H62.9458L62.7078 16.234C62.7078 15.7673 62.6378 15.3707 62.4978 15.044C62.3671 14.7173 62.1664 14.47 61.8958 14.302C61.6344 14.1247 61.3078 14.036 60.9158 14.036C60.4771 14.036 60.1038 14.1387 59.7958 14.344C59.4971 14.5493 59.2684 14.834 59.1098 15.198C58.9511 15.562 58.8718 15.9867 58.8718 16.472V16.556C58.8718 17.3773 59.0631 17.998 59.4458 18.418C59.8378 18.8287 60.4024 19.034 61.1398 19.034C61.4198 19.034 61.7138 18.9967 62.0218 18.922C62.3391 18.8473 62.6378 18.7213 62.9178 18.544C63.0764 18.4507 63.2164 18.4087 63.3378 18.418C63.4684 18.4273 63.5711 18.4693 63.6458 18.544C63.7298 18.6187 63.7811 18.712 63.7998 18.824C63.8184 18.936 63.7998 19.0527 63.7438 19.174C63.6878 19.286 63.5898 19.3887 63.4498 19.482C63.1324 19.6967 62.7638 19.86 62.3438 19.972C61.9238 20.0747 61.5178 20.126 61.1258 20.126Z" fill="white"/>
    <rect x="68" y="6" width="18" height="18" rx="9" fill="white"/>
    <path d="M78.325 10.325C78.325 9.59322 77.7318 9 77 9C76.2682 9 75.675 9.59322 75.675 10.325V13.675H72.325C71.5932 13.675 71 14.2682 71 15C71 15.7318 71.5932 16.325 72.325 16.325H75.675V19.675C75.675 20.4068 76.2682 21 77 21C77.7318 21 78.325 20.4068 78.325 19.675V16.325H81.675C82.4068 16.325 83 15.7318 83 15C83 14.2682 82.4068 13.675 81.675 13.675H78.325V10.325Z" fill="url(#paint1_linear_1_215)" stroke="white" stroke-linecap="round"/>
    <defs>
        <linearGradient id="paint0_linear_1_215" x1="47.0019" y1="0" x2="47.0019" y2="30" gradientUnits="userSpaceOnUse">
            <stop stop-color="#FFE665"/>
            <stop offset="1" stop-color="#FAB505"/>
        </linearGradient>
        <linearGradient id="paint1_linear_1_215" x1="77.0002" y1="9.5" x2="77.0002" y2="20.5" gradientUnits="userSpaceOnUse">
            <stop stop-color="#FFE665"/>
            <stop offset="1" stop-color="#FAB505"/>
        </linearGradient>
    </defs>
</svg>


