<svg width="35" height="35" viewBox="0 0 35 35" fill="none" xmlns="http://www.w3.org/2000/svg">
<path d="M6.98992 20.3689C7.17048 21.2355 7.42325 22.0083 7.78436 22.745C9.48159 26.2116 12.2333 28.3278 16.0105 29.0789C16.6316 29.2017 17.2816 29.2233 17.9171 29.2594C18.4877 29.2955 18.8777 29.6422 18.8632 30.155C18.8488 30.6533 18.4588 31 17.9027 31C11.8216 30.9855 6.44103 26.5655 5.27103 20.5783C5.11214 19.7622 5.06881 18.9172 5.00381 18.0794C4.9677 17.6461 5.19159 17.3283 5.53825 17.1911C5.92103 17.0466 6.24603 17.1478 6.5277 17.4294C7.65436 18.5561 8.78825 19.69 9.91492 20.8166C10.2905 21.1922 10.3049 21.7194 9.95825 22.0733C9.60436 22.4344 9.06992 22.42 8.67992 22.03C8.18881 21.5461 7.71214 21.0622 7.22103 20.5783C7.16325 20.5278 7.09825 20.47 6.98992 20.3689Z" fill="#494747" stroke="white" stroke-width="2.9"/>
<path d="M28.9527 15.6022C28.57 13.6594 27.725 11.9622 26.4105 10.5178C24.1861 8.06222 21.3983 6.80556 18.0905 6.73333C17.52 6.71889 17.13 6.365 17.1372 5.85222C17.1444 5.33944 17.5416 5 18.1194 5C24.0922 5.02889 29.3788 9.27556 30.6644 15.1183C30.8666 16.0283 30.9027 16.9744 30.9966 17.9061C31.04 18.3178 30.845 18.6283 30.4694 18.7944C30.0866 18.9606 29.7544 18.845 29.4655 18.5489C28.3605 17.4367 27.2483 16.3317 26.1361 15.2194C25.7316 14.8078 25.71 14.2878 26.0783 13.9267C26.4394 13.5728 26.9522 13.5944 27.3566 13.9989C27.8839 14.5261 28.4183 15.0678 28.9527 15.6022Z" fill="#494747" stroke="white" stroke-width="2.9"/>
<g filter="url(#filter0_d_42_274)">
<mask id="path-3-outside-1_42_274" maskUnits="userSpaceOnUse" x="3.64008" y="3.13176" width="28.9914" height="28.9914" fill="black">
<rect fill="white" x="3.64008" y="3.13176" width="28.9914" height="28.9914"/>
<path fill-rule="evenodd" clip-rule="evenodd" d="M8.64855 10.8512L6.9284 12.5714C6.80643 12.6933 6.74383 12.8647 6.75437 13.0477C6.76492 13.2308 6.84774 13.4105 6.98462 13.5474L21.5785 28.1412C21.7154 28.2777 21.895 28.3602 22.0778 28.3705C22.2606 28.3809 22.4317 28.3183 22.5535 28.1965L28.1971 22.5529C28.3185 22.431 28.3808 22.26 28.3703 22.0774C28.3597 21.8948 28.2773 21.7155 28.141 21.5787L13.5471 6.98487C13.4104 6.84809 13.2308 6.76529 13.0479 6.75464C12.865 6.74399 12.6937 6.80637 12.5717 6.92808L10.7684 8.73137C10.8679 8.86923 10.9271 9.03051 10.9365 9.19409C10.9486 9.40575 10.8761 9.60394 10.735 9.74506L9.66224 10.8178C9.52112 10.9589 9.32293 11.0314 9.11126 11.0193C8.94768 11.01 8.78641 10.9507 8.64855 10.8512Z"/>
</mask>
<path fill-rule="evenodd" clip-rule="evenodd" d="M8.64855 10.8512L6.9284 12.5714C6.80643 12.6933 6.74383 12.8647 6.75437 13.0477C6.76492 13.2308 6.84774 13.4105 6.98462 13.5474L21.5785 28.1412C21.7154 28.2777 21.895 28.3602 22.0778 28.3705C22.2606 28.3809 22.4317 28.3183 22.5535 28.1965L28.1971 22.5529C28.3185 22.431 28.3808 22.26 28.3703 22.0774C28.3597 21.8948 28.2773 21.7155 28.141 21.5787L13.5471 6.98487C13.4104 6.84809 13.2308 6.76529 13.0479 6.75464C12.865 6.74399 12.6937 6.80637 12.5717 6.92808L10.7684 8.73137C10.8679 8.86923 10.9271 9.03051 10.9365 9.19409C10.9486 9.40575 10.8761 9.60394 10.735 9.74506L9.66224 10.8178C9.52112 10.9589 9.32293 11.0314 9.11126 11.0193C8.94768 11.01 8.78641 10.9507 8.64855 10.8512Z" fill="#494747"/>
<path d="M8.64855 10.8512L9.81884 9.22935L8.43821 8.23312L7.23433 9.43699L8.64855 10.8512ZM6.75437 13.0477L8.75106 12.9327L6.75437 13.0477ZM21.5785 28.1412L20.1643 29.5554L20.1666 29.5578L21.5785 28.1412ZM22.0778 28.3705L21.9646 30.3673L21.9646 30.3673L22.0778 28.3705ZM22.5535 28.1965L21.1393 26.7823L22.5535 28.1965ZM28.1971 22.5529L29.6113 23.9671L29.6142 23.9642L28.1971 22.5529ZM28.141 21.5787L29.5575 20.1668L29.5552 20.1645L28.141 21.5787ZM13.0479 6.75464L12.9317 8.75126L13.0479 6.75464ZM12.5717 6.92808L11.1594 5.5119L11.1575 5.51387L12.5717 6.92808ZM10.7684 8.73137L9.35417 7.31716L8.1503 8.52103L9.14653 9.90166L10.7684 8.73137ZM10.9365 9.19409L12.9332 9.08004L12.9332 9.08003L10.9365 9.19409ZM9.11126 11.0193L9.22531 9.02255L9.22531 9.02255L9.11126 11.0193ZM8.34262 13.9856L10.0628 12.2654L7.23433 9.43699L5.51419 11.1571L8.34262 13.9856ZM8.75106 12.9327C8.77099 13.2787 8.6518 13.6764 8.34262 13.9856L5.51419 11.1571C4.96106 11.7103 4.71667 12.4507 4.75768 13.1627L8.75106 12.9327ZM8.39884 12.1332C8.58775 12.3221 8.73172 12.5968 8.75106 12.9327L4.75768 13.1627C4.79812 13.8647 5.10773 14.4989 5.57041 14.9616L8.39884 12.1332ZM22.9927 26.727L8.39884 12.1332L5.57041 14.9616L20.1643 29.5554L22.9927 26.727ZM22.191 26.3737C22.5266 26.3928 22.8013 26.5363 22.9903 26.7247L20.1666 29.5578C20.6295 30.0191 21.2633 30.3276 21.9646 30.3673L22.191 26.3737ZM21.1393 26.7823C21.4481 26.4735 21.8452 26.3542 22.191 26.3737L21.9646 30.3673C22.676 30.4077 23.4153 30.1631 23.9677 29.6107L21.1393 26.7823ZM26.7829 21.1387L21.1393 26.7823L23.9677 29.6107L29.6113 23.9671L26.7829 21.1387ZM26.3736 22.1924C26.3537 21.8473 26.4722 21.4507 26.7799 21.1417L29.6142 23.9642C30.1648 23.4113 30.4079 22.6727 30.367 21.9624L26.3736 22.1924ZM26.7244 22.9906C26.5362 22.8018 26.3929 22.5275 26.3736 22.1924L30.367 21.9624C30.3266 21.2621 30.0184 20.6292 29.5575 20.1668L26.7244 22.9906ZM12.1329 8.39908L26.7268 22.9929L29.5552 20.1645L14.9613 5.57065L12.1329 8.39908ZM12.9317 8.75126C12.5961 8.73173 12.3217 8.58785 12.1329 8.39908L14.9613 5.57065C14.499 5.10833 13.8655 4.79885 13.1641 4.75802L12.9317 8.75126ZM13.9839 8.34425C13.6746 8.65272 13.2772 8.77138 12.9317 8.75126L13.1641 4.75802C12.4528 4.71661 11.7128 4.96002 11.1594 5.51191L13.9839 8.34425ZM12.1826 10.1456L13.9859 8.34229L11.1575 5.51387L9.35417 7.31716L12.1826 10.1456ZM9.14653 9.90166C9.0367 9.74946 8.95343 9.54801 8.93973 9.30814L12.9332 9.08003C12.9008 8.513 12.699 7.98901 12.3902 7.56108L9.14653 9.90166ZM8.93973 9.30813C8.9216 8.99072 9.0312 8.62039 9.32074 8.33085L12.1492 11.1593C12.7209 10.5875 12.9755 9.82078 12.9332 9.08004L8.93973 9.30813ZM9.32074 8.33085L8.24803 9.40356L11.0765 12.232L12.1492 11.1593L9.32074 8.33085ZM8.24803 9.40356C8.53757 9.11403 8.9079 9.00442 9.22531 9.02255L8.99722 13.016C9.73796 13.0584 10.5047 12.8038 11.0765 12.232L8.24803 9.40356ZM9.22531 9.02255C9.46519 9.03625 9.66664 9.11953 9.81884 9.22935L7.47825 12.4731C7.90618 12.7818 8.43018 12.9837 8.99722 13.016L9.22531 9.02255Z" fill="white" mask="url(#path-3-outside-1_42_274)"/>
</g>
<path d="M6.98973 20.3675C7.17027 21.234 7.42302 22.0067 7.7841 22.7433C9.48116 26.2097 12.2326 28.3256 16.0094 29.0766C16.6305 29.1994 17.2804 29.2211 17.9159 29.2572C18.4864 29.2933 18.8764 29.6399 18.8619 30.1526C18.8475 30.6509 18.4575 30.9976 17.9015 30.9976C11.8209 30.9831 6.44089 26.5635 5.27101 20.5769C5.11213 19.7609 5.0688 18.9159 5.00381 18.0782C4.9677 17.6449 5.19157 17.3272 5.5382 17.19C5.92094 17.0456 6.24591 17.1467 6.52755 17.4283C7.65411 18.5549 8.78789 19.6886 9.91445 20.8152C10.29 21.1907 10.3044 21.7179 9.95778 22.0717C9.60392 22.4328 9.06953 22.4184 8.67957 22.0284C8.1885 21.5446 7.71188 21.0607 7.22082 20.5769C7.16305 20.5263 7.09805 20.4686 6.98973 20.3675Z" fill="#494747"/>
<path d="M28.9503 15.6012C28.5675 13.6586 27.7226 11.9616 26.4083 10.5172C24.1841 8.06193 21.3965 6.80538 18.0891 6.73317C17.5186 6.71872 17.1286 6.36487 17.1358 5.85214C17.1431 5.33941 17.5402 5 18.118 5C24.0902 5.02889 29.3763 9.27515 30.6618 15.1174C30.864 16.0273 30.9001 16.9733 30.994 17.9049C31.0373 18.3165 30.8423 18.627 30.4668 18.7931C30.084 18.9592 29.7519 18.8437 29.463 18.5476C28.3581 17.4355 27.246 16.3306 26.1339 15.2185C25.7295 14.8068 25.7078 14.2869 26.0761 13.9258C26.4372 13.572 26.9499 13.5936 27.3543 13.998C27.8815 14.5252 28.4159 15.0668 28.9503 15.6012Z" fill="#494747"/>
<defs>
<filter id="filter0_d_42_274" x="0.753296" y="0.75354" width="33.618" height="33.618" filterUnits="userSpaceOnUse" color-interpolation-filters="sRGB">
<feFlood flood-opacity="0" result="BackgroundImageFix"/>
<feColorMatrix in="SourceAlpha" type="matrix" values="0 0 0 0 0 0 0 0 0 0 0 0 0 0 0 0 0 0 127 0" result="hardAlpha"/>
<feOffset/>
<feGaussianBlur stdDeviation="2"/>
<feComposite in2="hardAlpha" operator="out"/>
<feColorMatrix type="matrix" values="0 0 0 0 1 0 0 0 0 1 0 0 0 0 1 0 0 0 0.25 0"/>
<feBlend mode="normal" in2="BackgroundImageFix" result="effect1_dropShadow_42_274"/>
<feBlend mode="normal" in="SourceGraphic" in2="effect1_dropShadow_42_274" result="shape"/>
</filter>
</defs>
</svg>
