<svg width="373" height="40" viewBox="0 0 373 40" fill="none" xmlns="http://www.w3.org/2000/svg">
<g clip-path="url(#clip0_42_284)">
<rect opacity="0.35" x="334.5" y="17.8335" width="21" height="10.3333" rx="2.16667" stroke="black"/>
<path opacity="0.4" d="M357 21V25C357.805 24.6612 358.328 23.8731 358.328 23C358.328 22.1269 357.805 21.3388 357 21Z" fill="black"/>
<rect x="336" y="19.3335" width="18" height="7.33333" rx="1.33333" fill="black"/>
<path fill-rule="evenodd" clip-rule="evenodd" d="M321.33 17.8257C323.546 17.8258 325.678 18.5998 327.283 19.9878C327.404 20.0949 327.598 20.0936 327.717 19.9848L328.873 18.9242C328.933 18.869 328.967 18.7942 328.966 18.7164C328.966 18.6386 328.931 18.5642 328.87 18.5096C324.655 14.8373 318.005 14.8373 313.79 18.5096C313.729 18.5641 313.694 18.6385 313.694 18.7163C313.693 18.7941 313.727 18.8689 313.787 18.9242L314.943 19.9848C315.062 20.0938 315.256 20.0951 315.377 19.9878C316.983 18.5997 319.114 17.8257 321.33 17.8257ZM321.33 21.2764C322.548 21.2763 323.722 21.6877 324.624 22.4306C324.746 22.536 324.939 22.5338 325.058 22.4255L326.212 21.3649C326.273 21.3092 326.307 21.2337 326.306 21.1553C326.305 21.0769 326.27 21.0021 326.208 20.9476C323.459 18.6236 319.203 18.6236 316.455 20.9476C316.393 21.0021 316.358 21.0769 316.357 21.1554C316.356 21.2338 316.39 21.3093 316.451 21.3649L317.605 22.4255C317.724 22.5338 317.917 22.536 318.039 22.4306C318.94 21.6882 320.114 21.2768 321.33 21.2764ZM323.643 23.5977C323.645 23.6764 323.611 23.7522 323.549 23.8073L321.552 25.6397C321.493 25.6936 321.414 25.7239 321.33 25.7239C321.247 25.7239 321.167 25.6936 321.109 25.6397L319.111 23.8073C319.049 23.7522 319.015 23.6763 319.017 23.5977C319.019 23.519 319.056 23.4446 319.121 23.3919C320.396 22.411 322.264 22.411 323.54 23.3919C323.604 23.4446 323.642 23.5191 323.643 23.5977Z" fill="black"/>
<path fill-rule="evenodd" clip-rule="evenodd" d="M307.666 16.0605H306.666C306.114 16.0605 305.666 16.4676 305.666 16.9696V24.8484C305.666 25.3505 306.114 25.7575 306.666 25.7575H307.666C308.219 25.7575 308.666 25.3505 308.666 24.8484V16.9696C308.666 16.4676 308.219 16.0605 307.666 16.0605ZM302 18.1816H303C303.552 18.1816 304 18.5887 304 19.0907V24.8483C304 25.3504 303.552 25.7574 303 25.7574H302C301.448 25.7574 301 25.3504 301 24.8483V19.0907C301 18.5887 301.448 18.1816 302 18.1816ZM298.333 20.3027H297.333C296.781 20.3027 296.333 20.7097 296.333 21.2118V24.8482C296.333 25.3503 296.781 25.7573 297.333 25.7573H298.333C298.885 25.7573 299.333 25.3503 299.333 24.8482V21.2118C299.333 20.7097 298.885 20.3027 298.333 20.3027ZM293.666 22.1212H292.666C292.114 22.1212 291.667 22.5282 291.667 23.0302V24.8484C291.667 25.3505 292.114 25.7575 292.666 25.7575H293.666C294.219 25.7575 294.666 25.3505 294.666 24.8484V23.0302C294.666 22.5282 294.219 22.1212 293.666 22.1212Z" fill="black"/>
<path d="M37.4922 25L38.1094 22.0859H32.6484L32.7812 21.4297L39.7734 13.5391H40.6875L39.0391 21.3672H40.9609L40.8047 22.0859H38.875L38.2578 25H37.4922ZM33.6953 21.3672H38.2578L39.125 17.2969C39.2188 16.875 39.3021 16.4974 39.375 16.1641C39.4531 15.8255 39.5286 15.513 39.6016 15.2266C39.6797 14.9401 39.7526 14.6641 39.8203 14.3984H39.7812C39.6042 14.6432 39.4193 14.888 39.2266 15.1328C39.0339 15.3776 38.8151 15.6328 38.5703 15.8984L33.6953 21.3672ZM43.75 17.8125C43.5833 17.8125 43.4505 17.7656 43.3516 17.6719C43.2526 17.5781 43.2031 17.4479 43.2031 17.2812C43.2031 17.1302 43.2318 16.987 43.2891 16.8516C43.3464 16.7161 43.4297 16.6042 43.5391 16.5156C43.6536 16.4271 43.7969 16.3828 43.9688 16.3828C44.1354 16.3828 44.263 16.4323 44.3516 16.5312C44.4401 16.625 44.4844 16.7552 44.4844 16.9219C44.4844 17.1354 44.4219 17.3385 44.2969 17.5312C44.1771 17.7188 43.9948 17.8125 43.75 17.8125ZM42.2578 25.1641C42.0859 25.1641 41.9531 25.1172 41.8594 25.0234C41.7656 24.9297 41.7188 24.7969 41.7188 24.625C41.7188 24.4062 41.7786 24.2031 41.8984 24.0156C42.0234 23.8281 42.2161 23.7344 42.4766 23.7344C42.6432 23.7344 42.7708 23.7839 42.8594 23.8828C42.9479 23.9818 42.9922 24.112 42.9922 24.2734C42.9922 24.487 42.9297 24.6901 42.8047 24.8828C42.6849 25.0703 42.5026 25.1641 42.2578 25.1641ZM45.0312 25L45.1719 24.3203L49.1719 20.7031C49.5938 20.3177 49.9948 19.9427 50.375 19.5781C50.7552 19.2135 51.0911 18.8438 51.3828 18.4688C51.6797 18.0885 51.9115 17.6927 52.0781 17.2812C52.25 16.8646 52.3359 16.4141 52.3359 15.9297C52.3359 15.3724 52.1641 14.9323 51.8203 14.6094C51.4766 14.2812 51.0078 14.1172 50.4141 14.1172C50.112 14.1172 49.8125 14.1562 49.5156 14.2344C49.224 14.3125 48.9323 14.4271 48.6406 14.5781C48.349 14.7292 48.0547 14.9141 47.7578 15.1328L47.375 14.5703C47.8802 14.1849 48.3932 13.8958 48.9141 13.7031C49.4349 13.5104 49.9557 13.4141 50.4766 13.4141C51.0286 13.4141 51.5026 13.5182 51.8984 13.7266C52.2995 13.9297 52.6068 14.2135 52.8203 14.5781C53.0391 14.9427 53.1484 15.3646 53.1484 15.8438C53.1484 16.526 53.0078 17.1536 52.7266 17.7266C52.4453 18.2943 52.0443 18.8516 51.5234 19.3984C51.0078 19.9453 50.3984 20.5312 49.6953 21.1562L46.2344 24.2344V24.2656H51.9219L51.7812 25H45.0312ZM57.2266 25L58.9844 16.7188C59.0521 16.401 59.1172 16.1042 59.1797 15.8281C59.2474 15.5469 59.3099 15.2917 59.3672 15.0625C59.4245 14.8281 59.474 14.6302 59.5156 14.4688C59.3698 14.6042 59.2188 14.7292 59.0625 14.8438C58.9115 14.9531 58.7266 15.0781 58.5078 15.2188L56.625 16.4609L56.2422 15.8594L59.75 13.5781H60.4609L58.0312 25H57.2266Z" fill="black"/>
</g>
<defs>
<clipPath id="clip0_42_284">
<rect width="375" height="40" fill="white" transform="translate(-2)"/>
</clipPath>
</defs>
</svg>
