<svg width="113" height="30" viewBox="0 0 113 30" fill="none" xmlns="http://www.w3.org/2000/svg">
    <rect width="113" height="30" rx="15" fill="url(#paint0_linear_1_219)"/>
    <path d="M13.876 20.098C13.6427 20.098 13.4607 20.0327 13.33 19.902C13.2087 19.7713 13.148 19.5893 13.148 19.356V10.872C13.148 10.6293 13.2133 10.4473 13.344 10.326C13.4747 10.1953 13.6567 10.13 13.89 10.13H17.236C18.3 10.13 19.1213 10.396 19.7 10.928C20.2787 11.4507 20.568 12.188 20.568 13.14C20.568 14.1013 20.2787 14.848 19.7 15.38C19.1213 15.9027 18.3 16.164 17.236 16.164H14.604V19.356C14.604 19.5893 14.5433 19.7713 14.422 19.902C14.3007 20.0327 14.1187 20.098 13.876 20.098ZM14.604 15.002H17.026C17.726 15.002 18.2533 14.848 18.608 14.54C18.972 14.2227 19.154 13.756 19.154 13.14C19.154 12.5333 18.972 12.076 18.608 11.768C18.2533 11.4507 17.726 11.292 17.026 11.292H14.604V15.002ZM24.6163 20.126C23.9256 20.126 23.3283 19.9813 22.8243 19.692C22.3296 19.4027 21.9423 18.992 21.6623 18.46C21.3823 17.928 21.2423 17.3027 21.2423 16.584C21.2423 16.0333 21.3216 15.5433 21.4803 15.114C21.639 14.6847 21.863 14.316 22.1523 14.008C22.451 13.6907 22.8056 13.4527 23.2163 13.294C23.6363 13.126 24.103 13.042 24.6163 13.042C25.2976 13.042 25.8856 13.1867 26.3803 13.476C26.8843 13.7653 27.2763 14.176 27.5563 14.708C27.8363 15.2307 27.9763 15.856 27.9763 16.584C27.9763 17.1253 27.897 17.6153 27.7383 18.054C27.5796 18.4927 27.351 18.866 27.0523 19.174C26.763 19.482 26.4083 19.72 25.9883 19.888C25.5776 20.0467 25.1203 20.126 24.6163 20.126ZM24.6163 19.034C24.999 19.034 25.335 18.9407 25.6243 18.754C25.9136 18.5673 26.1376 18.292 26.2963 17.928C26.4643 17.564 26.5483 17.116 26.5483 16.584C26.5483 15.7813 26.371 15.1747 26.0163 14.764C25.6616 14.3533 25.195 14.148 24.6163 14.148C24.2243 14.148 23.8836 14.2413 23.5943 14.428C23.305 14.6053 23.0763 14.876 22.9083 15.24C22.7496 15.604 22.6703 16.052 22.6703 16.584C22.6703 17.3773 22.8476 17.984 23.2023 18.404C23.557 18.824 24.0283 19.034 24.6163 19.034ZM31.9583 20.126C31.5476 20.126 31.123 20.0793 30.6843 19.986C30.255 19.8927 29.8583 19.734 29.4943 19.51C29.373 19.426 29.289 19.3327 29.2423 19.23C29.1956 19.1273 29.177 19.0247 29.1863 18.922C29.205 18.81 29.247 18.7167 29.3123 18.642C29.387 18.558 29.4756 18.5067 29.5783 18.488C29.6903 18.4693 29.807 18.4927 29.9283 18.558C30.2923 18.7633 30.6423 18.908 30.9783 18.992C31.3143 19.0667 31.6456 19.104 31.9723 19.104C32.467 19.104 32.8403 19.0153 33.0923 18.838C33.3443 18.6607 33.4703 18.4227 33.4703 18.124C33.4703 17.8813 33.3863 17.6947 33.2183 17.564C33.0503 17.424 32.7983 17.3167 32.4623 17.242L31.1323 16.976C30.5536 16.8547 30.115 16.64 29.8163 16.332C29.5176 16.024 29.3683 15.632 29.3683 15.156C29.3683 14.7267 29.485 14.3533 29.7183 14.036C29.9516 13.7187 30.2783 13.476 30.6983 13.308C31.1183 13.1307 31.6036 13.042 32.1543 13.042C32.565 13.042 32.9523 13.0933 33.3163 13.196C33.6803 13.2987 34.0163 13.4527 34.3243 13.658C34.4456 13.7233 34.525 13.812 34.5623 13.924C34.5996 14.0267 34.6043 14.1293 34.5763 14.232C34.5576 14.3347 34.511 14.428 34.4363 14.512C34.3616 14.5867 34.2683 14.6333 34.1563 14.652C34.0536 14.6613 33.937 14.6333 33.8063 14.568C33.5263 14.3907 33.2463 14.2647 32.9663 14.19C32.6956 14.1153 32.425 14.078 32.1543 14.078C31.6596 14.078 31.2863 14.1713 31.0343 14.358C30.7916 14.5353 30.6703 14.778 30.6703 15.086C30.6703 15.3193 30.745 15.5107 30.8943 15.66C31.0436 15.8093 31.277 15.9167 31.5943 15.982L32.9243 16.248C33.531 16.3693 33.9883 16.5747 34.2963 16.864C34.6136 17.1533 34.7723 17.5453 34.7723 18.04C34.7723 18.684 34.5156 19.1927 34.0023 19.566C33.489 19.9393 32.8076 20.126 31.9583 20.126ZM39.1892 20.126C38.6292 20.126 38.1579 20.028 37.7752 19.832C37.3925 19.636 37.1079 19.3467 36.9212 18.964C36.7345 18.5813 36.6412 18.1147 36.6412 17.564V14.26H35.8012C35.6145 14.26 35.4699 14.2133 35.3672 14.12C35.2645 14.0173 35.2132 13.882 35.2132 13.714C35.2132 13.5367 35.2645 13.4013 35.3672 13.308C35.4699 13.2147 35.6145 13.168 35.8012 13.168H36.6412V11.726C36.6412 11.4927 36.7019 11.3153 36.8232 11.194C36.9539 11.0727 37.1312 11.012 37.3552 11.012C37.5792 11.012 37.7519 11.0727 37.8732 11.194C37.9945 11.3153 38.0552 11.4927 38.0552 11.726V13.168H39.6932C39.8799 13.168 40.0245 13.2147 40.1272 13.308C40.2299 13.4013 40.2812 13.5367 40.2812 13.714C40.2812 13.882 40.2299 14.0173 40.1272 14.12C40.0245 14.2133 39.8799 14.26 39.6932 14.26H38.0552V17.452C38.0552 17.9467 38.1579 18.32 38.3632 18.572C38.5779 18.824 38.9232 18.95 39.3992 18.95C39.5672 18.95 39.7119 18.936 39.8332 18.908C39.9639 18.8707 40.0712 18.8473 40.1552 18.838C40.2579 18.838 40.3419 18.8753 40.4072 18.95C40.4725 19.0153 40.5052 19.146 40.5052 19.342C40.5052 19.482 40.4772 19.6127 40.4212 19.734C40.3745 19.8553 40.2859 19.9347 40.1552 19.972C40.0432 20.0093 39.8892 20.042 39.6932 20.07C39.5065 20.1073 39.3385 20.126 39.1892 20.126ZM47.5739 20.098C47.3779 20.098 47.2052 20.0513 47.0559 19.958C46.9159 19.8553 46.8039 19.6967 46.7199 19.482L44.6619 14.036C44.5872 13.8493 44.5639 13.686 44.5919 13.546C44.6199 13.3967 44.6899 13.28 44.8019 13.196C44.9232 13.112 45.0772 13.07 45.2639 13.07C45.4319 13.07 45.5672 13.112 45.6699 13.196C45.7819 13.2707 45.8752 13.42 45.9499 13.644L47.7839 18.81H47.4479L49.3519 13.588C49.4172 13.4107 49.5059 13.28 49.6179 13.196C49.7299 13.112 49.8746 13.07 50.0519 13.07C50.2292 13.07 50.3739 13.112 50.4859 13.196C50.6072 13.28 50.6959 13.4107 50.7519 13.588L52.6139 18.81H52.3059L54.1679 13.616C54.2426 13.4013 54.3359 13.2567 54.4479 13.182C54.5692 13.1073 54.7046 13.07 54.8539 13.07C55.0406 13.07 55.1806 13.1167 55.2739 13.21C55.3766 13.3033 55.4326 13.4247 55.4419 13.574C55.4606 13.714 55.4372 13.868 55.3719 14.036L53.3139 19.482C53.2299 19.6873 53.1132 19.8413 52.9639 19.944C52.8239 20.0467 52.6606 20.098 52.4739 20.098C52.2779 20.098 52.1052 20.0467 51.9559 19.944C51.8159 19.8413 51.7039 19.6873 51.6199 19.482L49.6599 14.176H50.3599L48.4139 19.482C48.3392 19.6873 48.2272 19.8413 48.0779 19.944C47.9379 20.0467 47.7699 20.098 47.5739 20.098ZM59.7667 20.126C59.076 20.126 58.4787 19.9813 57.9747 19.692C57.48 19.4027 57.0927 18.992 56.8127 18.46C56.5327 17.928 56.3927 17.3027 56.3927 16.584C56.3927 16.0333 56.472 15.5433 56.6307 15.114C56.7894 14.6847 57.0134 14.316 57.3027 14.008C57.6014 13.6907 57.956 13.4527 58.3667 13.294C58.7867 13.126 59.2534 13.042 59.7667 13.042C60.448 13.042 61.036 13.1867 61.5307 13.476C62.0347 13.7653 62.4267 14.176 62.7067 14.708C62.9867 15.2307 63.1267 15.856 63.1267 16.584C63.1267 17.1253 63.0474 17.6153 62.8887 18.054C62.73 18.4927 62.5014 18.866 62.2027 19.174C61.9134 19.482 61.5587 19.72 61.1387 19.888C60.728 20.0467 60.2707 20.126 59.7667 20.126ZM59.7667 19.034C60.1494 19.034 60.4854 18.9407 60.7747 18.754C61.064 18.5673 61.288 18.292 61.4467 17.928C61.6147 17.564 61.6987 17.116 61.6987 16.584C61.6987 15.7813 61.5214 15.1747 61.1667 14.764C60.812 14.3533 60.3454 14.148 59.7667 14.148C59.3747 14.148 59.034 14.2413 58.7447 14.428C58.4554 14.6053 58.2267 14.876 58.0587 15.24C57.9 15.604 57.8207 16.052 57.8207 16.584C57.8207 17.3773 57.998 17.984 58.3527 18.404C58.7074 18.824 59.1787 19.034 59.7667 19.034ZM65.4287 20.098C65.1954 20.098 65.018 20.0373 64.8967 19.916C64.7754 19.7853 64.7147 19.608 64.7147 19.384V13.784C64.7147 13.5507 64.7754 13.3733 64.8967 13.252C65.018 13.1307 65.186 13.07 65.4007 13.07C65.6247 13.07 65.7927 13.1307 65.9047 13.252C66.026 13.3733 66.0867 13.5507 66.0867 13.784V14.806H65.9467C66.096 14.246 66.3714 13.8213 66.7727 13.532C67.174 13.2427 67.6874 13.0747 68.3127 13.028C68.4807 13.0187 68.6114 13.0607 68.7047 13.154C68.8074 13.2473 68.8634 13.392 68.8727 13.588C68.8914 13.784 68.8494 13.9427 68.7467 14.064C68.644 14.176 68.4854 14.2413 68.2707 14.26L68.0047 14.288C67.398 14.344 66.936 14.5353 66.6187 14.862C66.3014 15.1887 66.1427 15.6367 66.1427 16.206V19.384C66.1427 19.608 66.082 19.7853 65.9607 19.916C65.8487 20.0373 65.6714 20.098 65.4287 20.098ZM70.6374 20.098C70.4134 20.098 70.2407 20.0373 70.1194 19.916C69.998 19.7853 69.9374 19.608 69.9374 19.384V10.746C69.9374 10.5127 69.998 10.3353 70.1194 10.214C70.2407 10.0927 70.4134 10.032 70.6374 10.032C70.8614 10.032 71.034 10.0927 71.1554 10.214C71.286 10.3353 71.3514 10.5127 71.3514 10.746V16.15H71.3794L73.9974 13.546C74.1467 13.3967 74.282 13.28 74.4034 13.196C74.5247 13.112 74.6834 13.07 74.8794 13.07C75.0754 13.07 75.2247 13.1213 75.3274 13.224C75.43 13.3267 75.4814 13.4527 75.4814 13.602C75.4814 13.742 75.4114 13.8867 75.2714 14.036L72.4994 16.78V16.122L75.5234 19.132C75.6727 19.2813 75.7427 19.4307 75.7334 19.58C75.724 19.7293 75.6634 19.8553 75.5514 19.958C75.4394 20.0513 75.2994 20.098 75.1314 20.098C74.9167 20.098 74.744 20.056 74.6134 19.972C74.492 19.888 74.3474 19.762 74.1794 19.594L71.3794 16.878H71.3514V19.384C71.3514 19.86 71.1134 20.098 70.6374 20.098ZM79.9737 20.126C79.2831 20.126 78.6857 19.9813 78.1817 19.692C77.6871 19.4027 77.2997 18.992 77.0197 18.46C76.7397 17.928 76.5997 17.3027 76.5997 16.584C76.5997 16.0333 76.6791 15.5433 76.8377 15.114C76.9964 14.6847 77.2204 14.316 77.5097 14.008C77.8084 13.6907 78.1631 13.4527 78.5737 13.294C78.9937 13.126 79.4604 13.042 79.9737 13.042C80.6551 13.042 81.2431 13.1867 81.7377 13.476C82.2417 13.7653 82.6337 14.176 82.9137 14.708C83.1937 15.2307 83.3337 15.856 83.3337 16.584C83.3337 17.1253 83.2544 17.6153 83.0957 18.054C82.9371 18.4927 82.7084 18.866 82.4097 19.174C82.1204 19.482 81.7657 19.72 81.3457 19.888C80.9351 20.0467 80.4777 20.126 79.9737 20.126ZM79.9737 19.034C80.3564 19.034 80.6924 18.9407 80.9817 18.754C81.2711 18.5673 81.4951 18.292 81.6537 17.928C81.8217 17.564 81.9057 17.116 81.9057 16.584C81.9057 15.7813 81.7284 15.1747 81.3737 14.764C81.0191 14.3533 80.5524 14.148 79.9737 14.148C79.5817 14.148 79.2411 14.2413 78.9517 14.428C78.6624 14.6053 78.4337 14.876 78.2657 15.24C78.1071 15.604 78.0277 16.052 78.0277 16.584C78.0277 17.3773 78.2051 17.984 78.5597 18.404C78.9144 18.824 79.3857 19.034 79.9737 19.034ZM87.3577 20.126C86.8071 20.126 86.3451 20.0233 85.9717 19.818C85.6077 19.6127 85.3324 19.3093 85.1457 18.908C84.9684 18.4973 84.8797 17.984 84.8797 17.368V13.784C84.8797 13.5413 84.9404 13.364 85.0617 13.252C85.1831 13.1307 85.3557 13.07 85.5797 13.07C85.8037 13.07 85.9764 13.1307 86.0977 13.252C86.2284 13.364 86.2937 13.5413 86.2937 13.784V17.382C86.2937 17.9327 86.4057 18.3387 86.6297 18.6C86.8537 18.8613 87.2084 18.992 87.6937 18.992C88.2257 18.992 88.6551 18.8147 88.9817 18.46C89.3177 18.096 89.4857 17.62 89.4857 17.032V13.784C89.4857 13.5413 89.5464 13.364 89.6677 13.252C89.7891 13.1307 89.9664 13.07 90.1997 13.07C90.4237 13.07 90.5964 13.1307 90.7177 13.252C90.8391 13.364 90.8997 13.5413 90.8997 13.784V19.384C90.8997 19.86 90.6711 20.098 90.2137 20.098C89.9991 20.098 89.8311 20.0373 89.7097 19.916C89.5884 19.7853 89.5277 19.608 89.5277 19.384V18.194L89.7097 18.502C89.5231 19.0247 89.2244 19.426 88.8137 19.706C88.4031 19.986 87.9177 20.126 87.3577 20.126ZM95.8044 20.126C95.2444 20.126 94.7731 20.028 94.3904 19.832C94.0078 19.636 93.7231 19.3467 93.5364 18.964C93.3498 18.5813 93.2564 18.1147 93.2564 17.564V14.26H92.4164C92.2298 14.26 92.0851 14.2133 91.9824 14.12C91.8798 14.0173 91.8284 13.882 91.8284 13.714C91.8284 13.5367 91.8798 13.4013 91.9824 13.308C92.0851 13.2147 92.2298 13.168 92.4164 13.168H93.2564V11.726C93.2564 11.4927 93.3171 11.3153 93.4384 11.194C93.5691 11.0727 93.7464 11.012 93.9704 11.012C94.1944 11.012 94.3671 11.0727 94.4884 11.194C94.6098 11.3153 94.6704 11.4927 94.6704 11.726V13.168H96.3084C96.4951 13.168 96.6398 13.2147 96.7424 13.308C96.8451 13.4013 96.8964 13.5367 96.8964 13.714C96.8964 13.882 96.8451 14.0173 96.7424 14.12C96.6398 14.2133 96.4951 14.26 96.3084 14.26H94.6704V17.452C94.6704 17.9467 94.7731 18.32 94.9784 18.572C95.1931 18.824 95.5384 18.95 96.0144 18.95C96.1824 18.95 96.3271 18.936 96.4484 18.908C96.5791 18.8707 96.6864 18.8473 96.7704 18.838C96.8731 18.838 96.9571 18.8753 97.0224 18.95C97.0878 19.0153 97.1204 19.146 97.1204 19.342C97.1204 19.482 97.0924 19.6127 97.0364 19.734C96.9898 19.8553 96.9011 19.9347 96.7704 19.972C96.6584 20.0093 96.5044 20.042 96.3084 20.07C96.1218 20.1073 95.9538 20.126 95.8044 20.126ZM98.7054 17.34C98.5561 17.34 98.4394 17.2933 98.3554 17.2C98.2807 17.1067 98.2341 16.976 98.2154 16.808L97.8794 10.956C97.8607 10.676 97.9214 10.452 98.0614 10.284C98.2014 10.116 98.4161 10.032 98.7054 10.032C98.9761 10.032 99.1814 10.116 99.3214 10.284C99.4614 10.452 99.5174 10.676 99.4894 10.956L99.1534 16.808C99.1441 16.976 99.0974 17.1067 99.0134 17.2C98.9387 17.2933 98.8361 17.34 98.7054 17.34ZM98.7054 20.056C98.4347 20.056 98.2154 19.972 98.0474 19.804C97.8794 19.636 97.7954 19.4213 97.7954 19.16C97.7954 18.8987 97.8794 18.6887 98.0474 18.53C98.2154 18.362 98.4347 18.278 98.7054 18.278C98.9761 18.278 99.1907 18.362 99.3494 18.53C99.5081 18.6887 99.5874 18.8987 99.5874 19.16C99.5874 19.4213 99.5081 19.636 99.3494 19.804C99.1907 19.972 98.9761 20.056 98.7054 20.056Z" fill="white"/>
    <defs>
        <linearGradient id="paint0_linear_1_219" x1="112.327" y1="13.3333" x2="87.4712" y2="59.6017" gradientUnits="userSpaceOnUse">
            <stop stop-color="#0AA5ED"/>
            <stop offset="0.578125" stop-color="#45C2FC"/>
        </linearGradient>
    </defs>
</svg>
