<svg width="24" height="24" viewBox="0 0 24 24" fill="none" xmlns="http://www.w3.org/2000/svg">
<path d="M11.9585 15.4585C13.8915 15.4585 15.4585 13.8915 15.4585 11.9585C15.4585 10.0255 13.8915 8.4585 11.9585 8.4585C10.0255 8.4585 8.4585 10.0255 8.4585 11.9585C8.4585 13.8915 10.0255 15.4585 11.9585 15.4585Z" fill="#E8E8E8"/>
<path d="M14.0673 2.634C13.5758 2.52492 13.2 2.10558 13.2 1.60219V0.999999C13.2 0.447715 12.7523 0 12.2 0H11.8C11.2477 0 10.8 0.447715 10.8 1V1.60219C10.8 2.10558 10.4242 2.52492 9.93274 2.634C8.15381 3.02888 6.51729 3.92318 5.22024 5.22024C3.92318 6.51729 3.02888 8.15381 2.634 9.93274C2.52492 10.4242 2.10558 10.8 1.60219 10.8H0.999999C0.447715 10.8 0 11.2477 0 11.8V12.2C0 12.7523 0.447715 13.2 1 13.2H1.60211C2.10553 13.2 2.52489 13.5759 2.63394 14.0674C3.02869 15.8463 3.92294 17.4829 5.22001 18.78C6.51708 20.0771 8.15366 20.9713 9.93264 21.3661C10.4241 21.4751 10.8 21.8945 10.8 22.3979V23C10.8 23.5523 11.2477 24 11.8 24H12.2C12.7523 24 13.2 23.5523 13.2 23V22.3979C13.2 21.8945 13.5759 21.4751 14.0674 21.3661C15.8463 20.9713 17.4829 20.0771 18.78 18.78C20.0771 17.4829 20.9713 15.8463 21.3661 14.0674C21.4751 13.5759 21.8945 13.2 22.3979 13.2H23C23.5523 13.2 24 12.7523 24 12.2V11.8C24 11.2477 23.5523 10.8 23 10.8H22.3978C21.8944 10.8 21.4751 10.4242 21.366 9.93274C20.9711 8.15381 20.0768 6.51729 18.7798 5.22024C17.4827 3.92318 15.8462 3.02888 14.0673 2.634ZM12 19.2C8.0292 19.2 4.8 15.9708 4.8 12C4.8 8.0292 8.0292 4.8 12 4.8C15.9708 4.8 19.2 8.0292 19.2 12C19.2 15.9708 15.9708 19.2 12 19.2Z" fill="#E8E8E8"/>
</svg>
