<svg width="71" height="52" viewBox="0 0 71 52" fill="none" xmlns="http://www.w3.org/2000/svg">
<rect width="71" height="52" rx="26" fill="url(#paint0_linear_10_369)"/>
<path d="M17.4095 20.126C16.7468 20.126 16.1635 20.042 15.6595 19.874C15.1555 19.6967 14.7308 19.4353 14.3855 19.09C14.0495 18.7447 13.7928 18.3153 13.6155 17.802C13.4382 17.2887 13.3495 16.696 13.3495 16.024V10.76C13.3495 10.5173 13.4102 10.3353 13.5315 10.214C13.6622 10.0927 13.8442 10.032 14.0775 10.032C14.3108 10.032 14.4882 10.0927 14.6095 10.214C14.7402 10.3353 14.8055 10.5173 14.8055 10.76V15.996C14.8055 16.9573 15.0248 17.676 15.4635 18.152C15.9115 18.628 16.5602 18.866 17.4095 18.866C18.2682 18.866 18.9168 18.628 19.3555 18.152C19.7942 17.676 20.0135 16.9573 20.0135 15.996V10.76C20.0135 10.5173 20.0742 10.3353 20.1955 10.214C20.3262 10.0927 20.5035 10.032 20.7275 10.032C20.9608 10.032 21.1382 10.0927 21.2595 10.214C21.3808 10.3353 21.4415 10.5173 21.4415 10.76V16.024C21.4415 16.92 21.2875 17.676 20.9795 18.292C20.6808 18.8987 20.2328 19.356 19.6355 19.664C19.0382 19.972 18.2962 20.126 17.4095 20.126ZM24.2331 22.618C24.0091 22.618 23.8364 22.5573 23.7151 22.436C23.5937 22.3147 23.5331 22.1373 23.5331 21.904V13.784C23.5331 13.5507 23.5937 13.3733 23.7151 13.252C23.8364 13.1307 24.0044 13.07 24.2191 13.07C24.4431 13.07 24.6157 13.1307 24.7371 13.252C24.8584 13.3733 24.9191 13.5507 24.9191 13.784V15.002L24.7651 14.708C24.9144 14.204 25.2084 13.8027 25.6471 13.504C26.0857 13.196 26.6037 13.042 27.2011 13.042C27.8077 13.042 28.3351 13.1867 28.7831 13.476C29.2404 13.7653 29.5904 14.1713 29.8331 14.694C30.0851 15.2167 30.2111 15.8467 30.2111 16.584C30.2111 17.3027 30.0851 17.9327 29.8331 18.474C29.5904 19.006 29.2451 19.4167 28.7971 19.706C28.3491 19.986 27.8171 20.126 27.2011 20.126C26.6131 20.126 26.0997 19.9767 25.6611 19.678C25.2224 19.3793 24.9284 18.9827 24.7791 18.488H24.9471V21.904C24.9471 22.1373 24.8817 22.3147 24.7511 22.436C24.6297 22.5573 24.4571 22.618 24.2331 22.618ZM26.8511 19.034C27.2431 19.034 27.5837 18.9407 27.8731 18.754C28.1624 18.5673 28.3864 18.292 28.5451 17.928C28.7037 17.564 28.7831 17.116 28.7831 16.584C28.7831 15.7813 28.6057 15.1747 28.2511 14.764C27.9057 14.3533 27.4391 14.148 26.8511 14.148C26.4684 14.148 26.1277 14.2413 25.8291 14.428C25.5397 14.6053 25.3157 14.876 25.1571 15.24C24.9984 15.604 24.9191 16.052 24.9191 16.584C24.9191 17.3773 25.0964 17.984 25.4511 18.404C25.8057 18.824 26.2724 19.034 26.8511 19.034ZM34.0025 20.126C33.2745 20.126 32.7239 19.916 32.3505 19.496C31.9865 19.0667 31.8045 18.4507 31.8045 17.648V10.746C31.8045 10.5127 31.8652 10.3353 31.9865 10.214C32.1079 10.0927 32.2805 10.032 32.5045 10.032C32.7285 10.032 32.9012 10.0927 33.0225 10.214C33.1532 10.3353 33.2185 10.5127 33.2185 10.746V17.564C33.2185 18.0307 33.3119 18.3807 33.4985 18.614C33.6945 18.838 33.9745 18.95 34.3385 18.95C34.4225 18.95 34.4972 18.95 34.5625 18.95C34.6279 18.9407 34.6932 18.9313 34.7585 18.922C34.8705 18.9127 34.9499 18.9453 34.9965 19.02C35.0432 19.0853 35.0665 19.2253 35.0665 19.44C35.0665 19.636 35.0245 19.79 34.9405 19.902C34.8565 20.0047 34.7212 20.07 34.5345 20.098C34.4505 20.1073 34.3619 20.112 34.2685 20.112C34.1752 20.1213 34.0865 20.126 34.0025 20.126ZM38.9835 20.126C38.2928 20.126 37.6955 19.9813 37.1915 19.692C36.6968 19.4027 36.3095 18.992 36.0295 18.46C35.7495 17.928 35.6095 17.3027 35.6095 16.584C35.6095 16.0333 35.6888 15.5433 35.8475 15.114C36.0062 14.6847 36.2302 14.316 36.5195 14.008C36.8182 13.6907 37.1728 13.4527 37.5835 13.294C38.0035 13.126 38.4702 13.042 38.9835 13.042C39.6648 13.042 40.2528 13.1867 40.7475 13.476C41.2515 13.7653 41.6435 14.176 41.9235 14.708C42.2035 15.2307 42.3435 15.856 42.3435 16.584C42.3435 17.1253 42.2642 17.6153 42.1055 18.054C41.9468 18.4927 41.7182 18.866 41.4195 19.174C41.1302 19.482 40.7755 19.72 40.3555 19.888C39.9448 20.0467 39.4875 20.126 38.9835 20.126ZM38.9835 19.034C39.3662 19.034 39.7022 18.9407 39.9915 18.754C40.2808 18.5673 40.5048 18.292 40.6635 17.928C40.8315 17.564 40.9155 17.116 40.9155 16.584C40.9155 15.7813 40.7382 15.1747 40.3835 14.764C40.0288 14.3533 39.5622 14.148 38.9835 14.148C38.5915 14.148 38.2508 14.2413 37.9615 14.428C37.6722 14.6053 37.4435 14.876 37.2755 15.24C37.1168 15.604 37.0375 16.052 37.0375 16.584C37.0375 17.3773 37.2148 17.984 37.5695 18.404C37.9242 18.824 38.3955 19.034 38.9835 19.034ZM46.1155 20.126C45.6395 20.126 45.2102 20.0327 44.8275 19.846C44.4542 19.6593 44.1602 19.4073 43.9455 19.09C43.7308 18.7727 43.6235 18.4133 43.6235 18.012C43.6235 17.508 43.7495 17.1113 44.0015 16.822C44.2628 16.5233 44.6875 16.3133 45.2755 16.192C45.8728 16.0613 46.6755 15.996 47.6835 15.996H48.3415V16.864H47.6975C47.0255 16.864 46.4935 16.8967 46.1015 16.962C45.7095 17.0273 45.4295 17.1393 45.2615 17.298C45.1028 17.4473 45.0235 17.6573 45.0235 17.928C45.0235 18.2827 45.1448 18.572 45.3875 18.796C45.6302 19.0107 45.9662 19.118 46.3955 19.118C46.7408 19.118 47.0442 19.0387 47.3055 18.88C47.5668 18.712 47.7722 18.488 47.9215 18.208C48.0802 17.928 48.1595 17.606 48.1595 17.242V15.632C48.1595 15.1 48.0475 14.7173 47.8235 14.484C47.5995 14.2507 47.2308 14.134 46.7175 14.134C46.4188 14.134 46.1062 14.1713 45.7795 14.246C45.4622 14.3207 45.1308 14.4467 44.7855 14.624C44.6268 14.6987 44.4915 14.722 44.3795 14.694C44.2675 14.666 44.1788 14.6053 44.1135 14.512C44.0482 14.4093 44.0108 14.302 44.0015 14.19C44.0015 14.0687 44.0295 13.952 44.0855 13.84C44.1508 13.728 44.2582 13.644 44.4075 13.588C44.8182 13.392 45.2242 13.252 45.6255 13.168C46.0268 13.084 46.4048 13.042 46.7595 13.042C47.3848 13.042 47.8982 13.14 48.2995 13.336C48.7102 13.532 49.0135 13.8307 49.2095 14.232C49.4055 14.6333 49.5035 15.1513 49.5035 15.786V19.384C49.5035 19.608 49.4475 19.7853 49.3355 19.916C49.2235 20.0373 49.0602 20.098 48.8455 20.098C48.6402 20.098 48.4768 20.0373 48.3555 19.916C48.2342 19.7853 48.1735 19.608 48.1735 19.384V18.474H48.2995C48.2248 18.8193 48.0848 19.118 47.8795 19.37C47.6835 19.6127 47.4362 19.7993 47.1375 19.93C46.8388 20.0607 46.4982 20.126 46.1155 20.126ZM54.055 20.126C53.4577 20.126 52.9304 19.986 52.473 19.706C52.025 19.4167 51.675 19.006 51.423 18.474C51.171 17.9327 51.045 17.3027 51.045 16.584C51.045 15.8467 51.171 15.2167 51.423 14.694C51.675 14.1713 52.025 13.7653 52.473 13.476C52.9304 13.1867 53.4577 13.042 54.055 13.042C54.6524 13.042 55.1657 13.1913 55.595 13.49C56.0337 13.7793 56.3277 14.1713 56.477 14.666H56.323V10.746C56.323 10.5127 56.3837 10.3353 56.505 10.214C56.6264 10.0927 56.799 10.032 57.023 10.032C57.247 10.032 57.4197 10.0927 57.541 10.214C57.6717 10.3353 57.737 10.5127 57.737 10.746V19.384C57.737 19.608 57.6764 19.7853 57.555 19.916C57.4337 20.0373 57.261 20.098 57.037 20.098C56.813 20.098 56.6404 20.0373 56.519 19.916C56.3977 19.7853 56.337 19.608 56.337 19.384V18.152L56.491 18.46C56.3417 18.964 56.0477 19.37 55.609 19.678C55.1797 19.9767 54.6617 20.126 54.055 20.126ZM54.419 19.034C54.8017 19.034 55.1377 18.9407 55.427 18.754C55.7164 18.5673 55.9404 18.292 56.099 17.928C56.267 17.564 56.351 17.116 56.351 16.584C56.351 15.7813 56.1737 15.1747 55.819 14.764C55.4644 14.3533 54.9977 14.148 54.419 14.148C54.027 14.148 53.6864 14.2413 53.397 14.428C53.1077 14.6053 52.879 14.876 52.711 15.24C52.5524 15.604 52.473 16.052 52.473 16.584C52.473 17.3773 52.6504 17.984 53.005 18.404C53.3597 18.824 53.831 19.034 54.419 19.034ZM20.2865 42.098C20.0905 42.098 19.9178 42.0467 19.7685 41.944C19.6285 41.8413 19.5118 41.6827 19.4185 41.468L17.0805 36.036C17.0058 35.868 16.9778 35.7093 16.9965 35.56C17.0152 35.4107 17.0852 35.294 17.2065 35.21C17.3278 35.1167 17.4912 35.07 17.6965 35.07C17.8738 35.07 18.0138 35.112 18.1165 35.196C18.2192 35.28 18.3125 35.4247 18.3965 35.63L20.5105 40.838H20.1185L22.2745 35.63C22.3585 35.4247 22.4518 35.28 22.5545 35.196C22.6665 35.112 22.8205 35.07 23.0165 35.07C23.1845 35.07 23.3152 35.1167 23.4085 35.21C23.5112 35.294 23.5718 35.4107 23.5905 35.56C23.6185 35.7 23.5952 35.854 23.5205 36.022L21.1545 41.468C21.0705 41.6827 20.9538 41.8413 20.8045 41.944C20.6552 42.0467 20.4825 42.098 20.2865 42.098ZM25.6139 42.084C25.3899 42.084 25.2173 42.0187 25.0959 41.888C24.9746 41.748 24.9139 41.5567 24.9139 41.314V35.854C24.9139 35.6113 24.9746 35.4247 25.0959 35.294C25.2173 35.1633 25.3899 35.098 25.6139 35.098C25.8379 35.098 26.0106 35.1633 26.1319 35.294C26.2626 35.4247 26.3279 35.6113 26.3279 35.854V41.314C26.3279 41.5567 26.2673 41.748 26.1459 41.888C26.0246 42.0187 25.8473 42.084 25.6139 42.084ZM25.6139 33.642C25.3339 33.642 25.1146 33.572 24.9559 33.432C24.8066 33.292 24.7319 33.096 24.7319 32.844C24.7319 32.5827 24.8066 32.3867 24.9559 32.256C25.1146 32.116 25.3339 32.046 25.6139 32.046C25.8939 32.046 26.1086 32.116 26.2579 32.256C26.4166 32.3867 26.4959 32.5827 26.4959 32.844C26.4959 33.096 26.4166 33.292 26.2579 33.432C26.1086 33.572 25.8939 33.642 25.6139 33.642ZM30.9222 42.126C30.3249 42.126 29.7976 41.986 29.3402 41.706C28.8922 41.4167 28.5422 41.006 28.2902 40.474C28.0382 39.9327 27.9122 39.3027 27.9122 38.584C27.9122 37.8467 28.0382 37.2167 28.2902 36.694C28.5422 36.1713 28.8922 35.7653 29.3402 35.476C29.7976 35.1867 30.3249 35.042 30.9222 35.042C31.5196 35.042 32.0329 35.1913 32.4622 35.49C32.9009 35.7793 33.1949 36.1713 33.3442 36.666H33.1902V32.746C33.1902 32.5127 33.2509 32.3353 33.3722 32.214C33.4936 32.0927 33.6662 32.032 33.8902 32.032C34.1142 32.032 34.2869 32.0927 34.4082 32.214C34.5389 32.3353 34.6042 32.5127 34.6042 32.746V41.384C34.6042 41.608 34.5436 41.7853 34.4222 41.916C34.3009 42.0373 34.1282 42.098 33.9042 42.098C33.6802 42.098 33.5076 42.0373 33.3862 41.916C33.2649 41.7853 33.2042 41.608 33.2042 41.384V40.152L33.3582 40.46C33.2089 40.964 32.9149 41.37 32.4762 41.678C32.0469 41.9767 31.5289 42.126 30.9222 42.126ZM31.2862 41.034C31.6689 41.034 32.0049 40.9407 32.2942 40.754C32.5836 40.5673 32.8076 40.292 32.9662 39.928C33.1342 39.564 33.2182 39.116 33.2182 38.584C33.2182 37.7813 33.0409 37.1747 32.6862 36.764C32.3316 36.3533 31.8649 36.148 31.2862 36.148C30.8942 36.148 30.5536 36.2413 30.2642 36.428C29.9749 36.6053 29.7462 36.876 29.5782 37.24C29.4196 37.604 29.3402 38.052 29.3402 38.584C29.3402 39.3773 29.5176 39.984 29.8722 40.404C30.2269 40.824 30.6982 41.034 31.2862 41.034ZM39.7957 42.126C39.049 42.126 38.405 41.986 37.8637 41.706C37.3317 41.4167 36.9164 41.0107 36.6177 40.488C36.3284 39.956 36.1837 39.326 36.1837 38.598C36.1837 37.8887 36.3284 37.268 36.6177 36.736C36.907 36.204 37.3037 35.7887 37.8077 35.49C38.3117 35.1913 38.8857 35.042 39.5297 35.042C40.0057 35.042 40.4304 35.1213 40.8037 35.28C41.177 35.4293 41.4944 35.6533 41.7557 35.952C42.0264 36.2413 42.227 36.596 42.3577 37.016C42.4977 37.436 42.5677 37.9073 42.5677 38.43C42.5677 38.5887 42.521 38.71 42.4277 38.794C42.3344 38.8687 42.1944 38.906 42.0077 38.906H37.3037V38.038H41.6157L41.3777 38.234C41.3777 37.7673 41.3077 37.3707 41.1677 37.044C41.037 36.7173 40.8364 36.47 40.5657 36.302C40.3044 36.1247 39.9777 36.036 39.5857 36.036C39.147 36.036 38.7737 36.1387 38.4657 36.344C38.167 36.5493 37.9384 36.834 37.7797 37.198C37.621 37.562 37.5417 37.9867 37.5417 38.472V38.556C37.5417 39.3773 37.733 39.998 38.1157 40.418C38.5077 40.8287 39.0724 41.034 39.8097 41.034C40.0897 41.034 40.3837 40.9967 40.6917 40.922C41.009 40.8473 41.3077 40.7213 41.5877 40.544C41.7464 40.4507 41.8864 40.4087 42.0077 40.418C42.1384 40.4273 42.241 40.4693 42.3157 40.544C42.3997 40.6187 42.451 40.712 42.4697 40.824C42.4884 40.936 42.4697 41.0527 42.4137 41.174C42.3577 41.286 42.2597 41.3887 42.1197 41.482C41.8024 41.6967 41.4337 41.86 41.0137 41.972C40.5937 42.0747 40.1877 42.126 39.7957 42.126ZM47.0772 42.126C46.3866 42.126 45.7892 41.9813 45.2852 41.692C44.7906 41.4027 44.4032 40.992 44.1232 40.46C43.8432 39.928 43.7032 39.3027 43.7032 38.584C43.7032 38.0333 43.7826 37.5433 43.9412 37.114C44.0999 36.6847 44.3239 36.316 44.6132 36.008C44.9119 35.6907 45.2666 35.4527 45.6772 35.294C46.0972 35.126 46.5639 35.042 47.0772 35.042C47.7586 35.042 48.3466 35.1867 48.8412 35.476C49.3452 35.7653 49.7372 36.176 50.0172 36.708C50.2972 37.2307 50.4372 37.856 50.4372 38.584C50.4372 39.1253 50.3579 39.6153 50.1992 40.054C50.0406 40.4927 49.8119 40.866 49.5132 41.174C49.2239 41.482 48.8692 41.72 48.4492 41.888C48.0386 42.0467 47.5812 42.126 47.0772 42.126ZM47.0772 41.034C47.4599 41.034 47.7959 40.9407 48.0852 40.754C48.3746 40.5673 48.5986 40.292 48.7572 39.928C48.9252 39.564 49.0092 39.116 49.0092 38.584C49.0092 37.7813 48.8319 37.1747 48.4772 36.764C48.1226 36.3533 47.6559 36.148 47.0772 36.148C46.6852 36.148 46.3446 36.2413 46.0552 36.428C45.7659 36.6053 45.5372 36.876 45.3692 37.24C45.2106 37.604 45.1312 38.052 45.1312 38.584C45.1312 39.3773 45.3086 39.984 45.6632 40.404C46.0179 40.824 46.4892 41.034 47.0772 41.034ZM52.7113 39.34C52.5619 39.34 52.4453 39.2933 52.3613 39.2C52.2866 39.1067 52.2399 38.976 52.2213 38.808L51.8853 32.956C51.8666 32.676 51.9273 32.452 52.0673 32.284C52.2073 32.116 52.4219 32.032 52.7113 32.032C52.9819 32.032 53.1873 32.116 53.3273 32.284C53.4673 32.452 53.5233 32.676 53.4953 32.956L53.1593 38.808C53.1499 38.976 53.1033 39.1067 53.0193 39.2C52.9446 39.2933 52.8419 39.34 52.7113 39.34ZM52.7113 42.056C52.4406 42.056 52.2213 41.972 52.0533 41.804C51.8853 41.636 51.8013 41.4213 51.8013 41.16C51.8013 40.8987 51.8853 40.6887 52.0533 40.53C52.2213 40.362 52.4406 40.278 52.7113 40.278C52.9819 40.278 53.1966 40.362 53.3553 40.53C53.5139 40.6887 53.5933 40.8987 53.5933 41.16C53.5933 41.4213 53.5139 41.636 53.3553 41.804C53.1966 41.972 52.9819 42.056 52.7113 42.056Z" fill="white"/>
<defs>
<linearGradient id="paint0_linear_10_369" x1="70.5774" y1="23.1111" x2="22.6613" y2="55.4428" gradientUnits="userSpaceOnUse">
<stop stop-color="#0AA5ED"/>
<stop offset="0.578125" stop-color="#45C2FC"/>
</linearGradient>
</defs>
</svg>
